<?xml version="1.0" encoding="utf-8"?>
<!-- Generator: Adobe Illustrator 17.0.0, SVG Export Plug-In . SVG Version: 6.00 Build 0)  -->
<!DOCTYPE svg PUBLIC "-//W3C//DTD SVG 1.1//EN" "http://www.w3.org/Graphics/SVG/1.1/DTD/svg11.dtd">
<svg version="1.1" id="图层_1" xmlns="http://www.w3.org/2000/svg" xmlns:xlink="http://www.w3.org/1999/xlink" x="0px" y="0px"
	 width="72px" height="72px" viewBox="0 0 72 72" enable-background="new 0 0 72 72" xml:space="preserve">
<path fill="#5B5B5B" d="M36.436,0.385c-12.591,0-22.834,10.243-22.834,22.834c0,7.509,3.645,14.182,9.257,18.346
	C12.433,46.509,5.282,56.915,4.662,68.614c-0.059,1.103,0.788,2.044,1.891,2.103c0.036,0.002,0.072,0.003,0.108,0.003
	c1.056,0,1.938-0.827,1.995-1.895c0.593-11.185,8.014-21.02,18.544-24.731c2.826,1.255,5.95,1.959,9.236,1.959
	c12.591,0,22.834-10.243,22.834-22.834S49.026,0.385,36.436,0.385z M36.436,42.053c-10.385,0-18.834-8.449-18.834-18.834
	S26.05,4.385,36.436,4.385c10.385,0,18.834,8.449,18.834,18.834S46.82,42.053,36.436,42.053z"/>
<path fill="#5B5B5B" d="M66.214,70.794c-1.058,0-1.941-0.83-1.995-1.899c-0.314-6.223-2.757-12.233-6.876-16.924
	c-0.729-0.829-0.646-2.093,0.184-2.822c0.829-0.727,2.094-0.646,2.822,0.184c4.712,5.364,7.505,12.24,7.864,19.361
	c0.056,1.103-0.793,2.042-1.896,2.098C66.282,70.793,66.248,70.794,66.214,70.794z"/>
<path fill="none" stroke="#5B5B5B" stroke-width="4.5" stroke-linecap="round" stroke-linejoin="round" stroke-miterlimit="10" d="
	M66.222,68.918"/>
</svg>
