<?xml version="1.0" encoding="utf-8"?>
<!-- Generator: Adobe Illustrator 17.0.0, SVG Export Plug-In . SVG Version: 6.00 Build 0)  -->
<!DOCTYPE svg PUBLIC "-//W3C//DTD SVG 1.1//EN" "http://www.w3.org/Graphics/SVG/1.1/DTD/svg11.dtd">
<svg version="1.1" id="图层_1" xmlns="http://www.w3.org/2000/svg" xmlns:xlink="http://www.w3.org/1999/xlink" x="0px" y="0px"
	 width="72px" height="72px" viewBox="0 0 72 72" enable-background="new 0 0 72 72" xml:space="preserve">
<g>
	<path fill="#5B5B5B" d="M69.384,34.896c-0.173-5.896-1.877-11.66-4.928-16.668c-0.575-0.943-1.808-1.243-2.748-0.667
		c-0.943,0.575-1.242,1.805-0.668,2.749c2.69,4.417,4.192,9.501,4.346,14.705c0.235,8.012-2.664,15.637-8.163,21.469
		s-12.94,9.173-20.952,9.408C19.747,66.365,5.879,53.314,5.393,36.775C4.908,20.235,17.969,6.384,34.508,5.898
		c4.947-0.144,9.893,0.941,14.292,3.145c0.99,0.493,2.188,0.094,2.684-0.893c0.495-0.988,0.095-2.189-0.893-2.684
		C45.603,2.968,39.999,1.731,34.391,1.9C15.647,2.45,0.845,18.148,1.395,36.893C1.936,55.3,17.081,69.904,35.376,69.903
		c0.335,0,0.674-0.005,1.011-0.015c9.08-0.267,17.514-4.053,23.745-10.662C66.365,52.617,69.65,43.977,69.384,34.896z"/>
	<path fill="#5B5B5B" d="M20.353,50.181l0.75,0.75l17.205-11.95l12.12-17.374l-0.75-0.75L32.206,32.751L20.353,50.181z
		 M35.391,33.424c1.358,0,2.459,1.101,2.459,2.459c0,1.358-1.101,2.459-2.459,2.459s-2.459-1.101-2.459-2.459
		C32.932,34.525,34.032,33.424,35.391,33.424z"/>
</g>
</svg>
