<?xml version="1.0" encoding="utf-8"?>
<!-- Generator: Adobe Illustrator 17.0.0, SVG Export Plug-In . SVG Version: 6.00 Build 0)  -->
<!DOCTYPE svg PUBLIC "-//W3C//DTD SVG 1.1//EN" "http://www.w3.org/Graphics/SVG/1.1/DTD/svg11.dtd">
<svg version="1.1" id="图层_1" xmlns="http://www.w3.org/2000/svg" xmlns:xlink="http://www.w3.org/1999/xlink" x="0px" y="0px"
	 width="72px" height="72px" viewBox="0 0 72 72" enable-background="new 0 0 72 72" xml:space="preserve">
<path fill="#5B5B5B" d="M64.199,58.772h-3.643c0.022-0.118,0.036-0.238,0.036-0.361V30.392c0-11.76-8.31-21.612-19.365-24.004
	c0.033-0.124,0.056-0.251,0.056-0.385c0-2.897-2.357-5.254-5.254-5.254s-5.254,2.357-5.254,5.254c0,0.134,0.023,0.262,0.056,0.385
	C19.777,8.78,11.467,18.632,11.467,30.392v18.275c0,1.104,0.896,2,2,2s2-0.896,2-2V30.392c0-11.338,9.224-20.562,20.562-20.562
	s20.563,9.224,20.563,20.562v28.019c0,0.124,0.015,0.244,0.036,0.361H7.861c-1.104,0-2,0.896-2,2s0.896,2,2,2h17.751
	c0.939,4.899,5.25,8.613,10.418,8.613s9.48-3.715,10.419-8.613h17.751c1.104,0,2-0.896,2-2S65.304,58.772,64.199,58.772z
	 M33.783,5.937c0.036-1.211,1.027-2.188,2.247-2.188s2.212,0.976,2.248,2.188c-0.741-0.068-1.49-0.107-2.248-0.107
	C35.272,5.83,34.523,5.869,33.783,5.937z M36.03,67.386c-2.949,0-5.452-1.942-6.302-4.613h12.605
	C41.483,65.444,38.98,67.386,36.03,67.386z"/>
</svg>
