<?xml version="1.0" encoding="utf-8"?>
<!-- Generator: Adobe Illustrator 17.0.0, SVG Export Plug-In . SVG Version: 6.00 Build 0)  -->
<!DOCTYPE svg PUBLIC "-//W3C//DTD SVG 1.1//EN" "http://www.w3.org/Graphics/SVG/1.1/DTD/svg11.dtd">
<svg version="1.1" id="图层_1" xmlns="http://www.w3.org/2000/svg" xmlns:xlink="http://www.w3.org/1999/xlink" x="0px" y="0px"
	 width="72px" height="72px" viewBox="0 0 72 72" enable-background="new 0 0 72 72" xml:space="preserve">
<path fill="#5B5B5B" d="M71.344,36.412L38.881,2.93c-0.078-0.125-0.168-0.245-0.277-0.353c-0.673-0.673-1.559-1.006-2.446-1
	c-0.897-0.013-1.798,0.318-2.48,1.001c-0.107,0.107-0.197,0.225-0.275,0.349L0.959,36.388c-0.65,0.649-1.008,1.513-1.008,2.432
	c0,1.104,0.896,2,2,2h12.229c0.51,0,0.924,0.414,0.924,0.924v25.247c0,1.896,1.542,3.438,3.438,3.438h10.494
	c2.15,0,3.711-1.422,3.711-3.38v-9.236h10.141v9.152c0,1.942,1.716,3.464,3.905,3.464h8.732c1.896,0,3.438-1.543,3.438-3.438V42.773
	c0-1.104-0.896-2-2-2s-2,0.896-2,2V66.43h-8.075v-9.178c0-1.896-1.542-3.438-3.438-3.438H32.185c-1.896,0-3.438,1.543-3.438,3.438
	v9.178h-9.643V41.744c0-0.138-0.014-0.273-0.041-0.404c-0.168-2.029-1.559-3.698-3.442-4.28c-0.279-0.148-0.593-0.24-0.931-0.24
	H6.111L36.14,5.849l32.333,33.347c0.392,0.404,0.913,0.607,1.436,0.607c0.502,0,1.004-0.188,1.393-0.564
	C72.094,38.471,72.113,37.204,71.344,36.412z"/>
</svg>
